<svg xmlns="http://www.w3.org/2000/svg" xmlns:xlink="http://www.w3.org/1999/xlink" width="32" height="32" viewBox="0 0 32 32">
  <defs>
    <linearGradient id="a" x1="352.61" y1="-335.67" x2="352.61" y2="-318.17" gradientTransform="translate(-467.04 -0.88) rotate(45)" gradientUnits="userSpaceOnUse">
      <stop offset="0" stop-color="#8695c7"/>
      <stop offset="1" stop-color="#dea8c1"/>
    </linearGradient>
  </defs>
  <title>airport-11</title>
  <rect width="32" height="32" fill="none"/>
  <path d="M24.37,4.83a5.46,5.46,0,0,0-3.71,1.62L17.94,9.18a2,2,0,0,0-.71-.46,2.93,2.93,0,0,0-.81-2.26,3,3,0,0,0-4.24,0l-.29.29-4-1.46a2,2,0,0,0-2.11.46L3.69,7.87A2,2,0,0,0,4,11l7.44,4.65-.72.72a2,2,0,0,0-.25.3l-1,1.61L6,17.9a2,2,0,0,0-1.63.57L2.27,20.6A2,2,0,0,0,3.2,24l4.5,1.08,1.12,4.49a2,2,0,0,0,3.35.93l2.12-2.12a2,2,0,0,0,.57-1.63l-.38-3.4,1.62-1.08a2,2,0,0,0,.31-.25l.72-.72,4.65,7.44a2,2,0,0,0,3.11.35L27,27a2,2,0,0,0,.46-2.11l-1.46-4,.29-.29a3,3,0,0,0,0-4.24A2.93,2.93,0,0,0,24,15.55a2,2,0,0,0-.46-.72l2.72-2.72A5.58,5.58,0,0,0,27.84,9.2,3.49,3.49,0,0,0,27,5.75,3.31,3.31,0,0,0,24.37,4.83Z" transform="translate(0.02)" fill="#fff"/>
  <path d="M7.22,7.16,5.1,9.29l7.83,4.9,3.59-3.59-2.07-.76L15,9.29a1,1,0,0,0-1.41-1.41l-1.2,1.2Zm15,9.08-3.59,3.59,4.89,7.83,2.12-2.12-1.9-5.17,1.2-1.2a1,1,0,0,0-1.41-1.41L23,18.3Z" transform="translate(0.02)" fill="#8695c7"/>
  <path d="M25.61,7.16c-.67-.67-2.54-.29-3.54.71l-9.9,9.9L10.42,20.4l-4.61-.51L3.69,22l5.66,1.41,1.41,5.66L12.88,27l-.51-4.61L15,20.6l9.9-9.9C25.9,9.7,26.28,7.83,25.61,7.16Z" transform="translate(0.02)" fill="url(#a)"/>
</svg>
