<svg xmlns="http://www.w3.org/2000/svg" xmlns:xlink="http://www.w3.org/1999/xlink" width="31.93" height="31.93" viewBox="0 0 31.93 31.93">
  <defs>
    <linearGradient id="a" x1="58.07" y1="682.53" x2="58.07" y2="693" gradientTransform="translate(-42 -666)" gradientUnits="userSpaceOnUse">
      <stop offset="0" stop-color="#e3b781"/>
      <stop offset="1" stop-color="#e9d85e"/>
    </linearGradient>
  </defs>
  <title>college-11</title>
  <g>
    <rect width="31.93" height="31.93" fill="none"/>
    <path d="M16,3a2,2,0,0,0-1.16.42l-6,4.69a2,2,0,0,0-.77,1.58V13a2,2,0,0,0-1.41.59l-3,3A2,2,0,0,0,3.07,18v9a2,2,0,0,0,2,2h22a2,2,0,0,0,2-2V18a2,2,0,0,0-.59-1.41l-3-3A2,2,0,0,0,24.07,13V9.69a2,2,0,0,0-.77-1.58l-6-4.69A2,2,0,0,0,16,3Z" transform="translate(-0.07)" fill="#fff"/>
    <path d="M16.07,5l-6,4.69V15h-2l-3,3v9h6V21a1,1,0,0,1,.32-.74,7.12,7.12,0,0,1,4.63-2,6.55,6.55,0,0,1,4.75,2,1,1,0,0,1,.29.71v6h6V18l-3-3h-2V9.69Zm0,15.27a5,5,0,0,0-3,1.25V27h6V21.51a4.4,4.4,0,0,0-3-1.23Z" transform="translate(-0.07)" fill="url(#a)"/>
    <path d="M13.07,10.08l3-2,3,2V15h-6Z" transform="translate(-0.07)" fill="#fff"/>
    <path d="M15.07,13V11l1-1,1,1v2h1v1h-4V13Z" transform="translate(-0.07)" fill="#b28e76"/>
  </g>
</svg>
