<?xml version="1.0" encoding="UTF-8" standalone="no"?>
<!-- Created with Inkscape (http://www.inkscape.org/) -->
<svg id="svg2" xmlns:rdf="http://www.w3.org/1999/02/22-rdf-syntax-ns#" xmlns="http://www.w3.org/2000/svg" height="44" width="48" version="1.1" xmlns:cc="http://creativecommons.org/ns#" xmlns:xlink="http://www.w3.org/1999/xlink" xmlns:dc="http://purl.org/dc/elements/1.1/">
 <defs id="defs4">
  <linearGradient id="linearGradient3856" y2="1040.4" gradientUnits="userSpaceOnUse" x2="4" y1="1032.4" x1="4">
   <stop id="stop3852" stop-color="#FFF" offset="0"/>
   <stop id="stop3854" stop-color="#e8e8e8" offset="1"/>
  </linearGradient>
 </defs>
 <metadata id="metadata7">
  <rdf:RDF>
   <cc:Work rdf:about="">
    <dc:format>image/svg+xml</dc:format>
    <dc:type rdf:resource="http://purl.org/dc/dcmitype/StillImage"/>
    <dc:title/>
   </cc:Work>
  </rdf:RDF>
 </metadata>
 <g id="layer1" fill-rule="nonzero" transform="translate(0,-1008.3622)">
  <path id="rect3756" style="baseline-shift:baseline;block-progression:tb;color:#000000;direction:ltr;text-indent:0;text-align:start;enable-background:accumulate;text-transform:none;" fill="#8fa1b3" d="m8,1018.4c-3.2894,0-6,2.7106-6,6v12c0,3.2894,2.7106,6,6,6h32c3.2894,0,6-2.7106,6-6v-12c0-3.2894-2.7106-6-6-6h-32zm0,4,32,0c1.1426,0,2,0.8574,2,2v12c0,1.1426-0.85741,2-2,2h-32c-1.1426,0-2-0.8574-2-2v-12c0-1.1426,0.85741-2,2-2z"/>
  <path id="rect2986" style="enable-background:accumulate;color:#000000;" d="m8,1020.4,32,0c2.216,0,4,1.784,4,4v12c0,2.216-1.784,4-4,4h-32c-2.216,0-4-1.784-4-4v-12c0-2.216,1.784-4,4-4z" fill="url(#linearGradient3856)"/>
 </g>
</svg>
