<svg xmlns="http://www.w3.org/2000/svg" xmlns:xlink="http://www.w3.org/1999/xlink" width="39" height="21" viewBox="0 0 39 21">
  <defs>
    <linearGradient id="a" x1="19.33" y1="2.23" x2="19.73" y2="19.19" gradientUnits="userSpaceOnUse">
      <stop offset="0" stop-color="#65d199"/>
      <stop offset="1" stop-color="#31bca7"/>
    </linearGradient>
  </defs>
  <title>motorway-exit</title>
  <path d="M3,1H38a0,0,0,0,1,0,0V20a0,0,0,0,1,0,0H3a2,2,0,0,1-2-2V3A2,2,0,0,1,3,1Z" fill="url(#a)"/>
  <path d="M37,21H2a2,2,0,0,1-2-2V2A2,2,0,0,1,2,0H37a2,2,0,0,1,2,2V19A2,2,0,0,1,37,21ZM2,19H37V2H2Z" fill="#fff"/>
</svg>
