<svg xmlns="http://www.w3.org/2000/svg" xmlns:xlink="http://www.w3.org/1999/xlink" width="32" height="32" viewBox="0 0 32 32">
  <defs>
    <linearGradient id="a" x1="231" y1="7.19" x2="231" y2="22" gradientTransform="matrix(1, 0, 0, -1, -215, 34)" gradientUnits="userSpaceOnUse">
      <stop offset="0" stop-color="#8695c7"/>
      <stop offset="0.25" stop-color="#8996c7"/>
      <stop offset="0.45" stop-color="#9398c6"/>
      <stop offset="0.64" stop-color="#a59cc5"/>
      <stop offset="0.82" stop-color="#bda1c3"/>
      <stop offset="0.99" stop-color="#dca8c1"/>
      <stop offset="1" stop-color="#dea8c1"/>
    </linearGradient>
  </defs>
  <title>rail</title>
  <rect width="32" height="32" fill="none"/>
  <path d="M12,3A5,5,0,0,0,7,8V21a2,2,0,0,0,2,2h.76L8.21,26.11A2,2,0,0,0,10,29h2a2,2,0,0,0,1.79-1.11l.45-.89h3.53l.45.89A2,2,0,0,0,20,29h2a2,2,0,0,0,1.79-2.89L22.24,23H23a2,2,0,0,0,2-2V8a5,5,0,0,0-5-5Z" fill="#fff"/>
  <path d="M12,6h8a1,1,0,0,1,1,1V19H11V7A1,1,0,0,1,12,6Z" fill="#fff"/>
  <path d="M12,5A3,3,0,0,0,9,8V21H23V8a3,3,0,0,0-3-3Zm0,4h8v4H12Zm1,7a1,1,0,1,1-1,1A1,1,0,0,1,13,16Zm6,0a1,1,0,1,1-1,1A1,1,0,0,1,19,16Z" fill="url(#a)"/>
  <path d="M12,23l-2,4h2l1-2h6l1,2h2l-2-4H12Z" fill="#8695c7"/>
</svg>
