<svg xmlns="http://www.w3.org/2000/svg" xmlns:xlink="http://www.w3.org/1999/xlink" width="42.14" height="31.26" viewBox="0 0 42.14 31.26">
  <defs>
    <linearGradient id="a" x1="23.73" y1="662" x2="23.73" y2="682.96" gradientTransform="translate(-2.69 -657.9)" gradientUnits="userSpaceOnUse">
      <stop offset="0" stop-color="#fff"/>
      <stop offset="1" stop-color="#ebebeb"/>
    </linearGradient>
  </defs>
  <title>us-highway</title>
  <g>
    <path d="M40.46,14.3s-1.65-3.88.59-7.06L33.4.77,28.79,3.54a2.82,2.82,0,0,1-2.62.15L21.06,1.36,15.94,3.69a2.82,2.82,0,0,1-2.63-.15L8.71.77,1.06,7.24c2.24,3.18.59,7.06.59,7.06a10.55,10.55,0,0,0-.55,5c.33,4.32,4.67,7.91,9.94,8.27a38,38,0,0,1,10,2.58,37,37,0,0,1,10-2.58c5.28-.36,9.61-4,9.94-8.27A10.55,10.55,0,0,0,40.46,14.3Z" transform="translate(0 0)" fill="url(#a)"/>
    <path d="M21.08,31.26l-.4-.16A37.28,37.28,0,0,0,11,28.6C5.14,28.2.47,24.25.1,19.41a11.33,11.33,0,0,1,.65-5.54h0s1.37-3.38-.51-6h0A1,1,0,0,1,.41,6.53L7.5.53A2,2,0,0,1,9.84.34l4,2.39a1.82,1.82,0,0,0,1.69.1L20.23.7A2,2,0,0,1,21.9.7l4.69,2.13a1.82,1.82,0,0,0,1.72-.15l4-2.39a2,2,0,0,1,2.34.19l7.09,6a1,1,0,0,1,.17,1.34h0c-1.83,2.6-.59,5.84-.49,6.08A11.56,11.56,0,0,1,42,19.41c-.37,4.84-5,8.8-10.87,9.19a36,36,0,0,0-9.71,2.5ZM2.31,7.45a9.12,9.12,0,0,1,.21,7.24,9.92,9.92,0,0,0-.47,4.56c.29,3.8,4.25,7,9,7.35a37.73,37.73,0,0,1,10,2.5A37.41,37.41,0,0,1,31,26.6c4.76-.32,8.72-3.55,9-7.35a10,10,0,0,0-.45-4.52h0a9.13,9.13,0,0,1,.21-7.24L33.31,2l-4,2.4a3.82,3.82,0,0,1-3.54.2l-4.7-2.14L16.31,4.6a3.82,3.82,0,0,1-3.54-.2L8.77,2Z" transform="translate(0 0)" fill="#a0a0a0"/>
  </g>
</svg>
